# xmcd
#
# Track frame offsets:
#	150
#	12395
#	27057
#	46517
#	72447
#	94362
#	114454
#	136291
#	159123
#	174326
#	188826
#	208835
#	226163
#	270230
#
# Disc length: 3817 seconds
# Revision: 0
# Processed by: cddbd v1.5.2PL0 Copyright (c) Steve Scherf et al.
# Submitted via: dBpowerAMP V12.0
#
DISCID=ac0ee70e
DTITLE=Philipp Fankhauser - Home
DYEAR=2014
DGENRE=Blues
TTITLE0=Daily Bread
TTITLE1=Learned My Lesson
TTITLE2=Nobody But You
TTITLE3=Promised Myself
TTITLE4=Rainy Night in Georgia
TTITLE5=The Chokin' Kind
TTITLE6=Once Is Not Enough
TTITLE7=I Sing the Blues
TTITLE8=Sweet Sensations
TTITLE9=Runnin' in Circles
TTITLE10=I Love to Be Loved by You
TTITLE11=Louisiana Lover Man
TTITLE12=Home
TTITLE13=Pie in the Sky
EXTD=
EXTT0=
EXTT1=
EXTT2=
EXTT3=
EXTT4=
EXTT5=
EXTT6=
EXTT7=
EXTT8=
EXTT9=
EXTT10=
EXTT11=
EXTT12=
EXTT13=
PLAYORDER=
